<svg xmlns="http://www.w3.org/2000/svg" xmlns:xlink="http://www.w3.org/1999/xlink" width="67" zoomAndPan="magnify" viewBox="0 0 50.25 48.749998" height="65" preserveAspectRatio="xMidYMid meet" version="1.0">
  <defs>
    <clipPath id="5d712d28e9">
      <path d="M 2 0.234375 L 47 0.234375 L 47 47 L 2 47 Z M 2 0.234375 " clip-rule="nonzero" />
    </clipPath>
    <clipPath id="d05aff800f">
      <path d="M 0 3.027344 L 46.472656 0.242188 L 49.167969 45.238281 L 2.695312 48.023438 Z M 0 3.027344 " clip-rule="nonzero" />
    </clipPath>
    <clipPath id="5517404edf">
      <path d="M 0 3.027344 L 46.472656 0.242188 L 49.167969 45.238281 L 2.695312 48.023438 Z M 0 3.027344 " clip-rule="nonzero" />
    </clipPath>
    <clipPath id="8040902b62">
      <path d="M 28.867188 39.777344 L 34.042969 39.777344 L 34.042969 44.949219 L 28.867188 44.949219 Z M 28.867188 39.777344 " clip-rule="nonzero" />
    </clipPath>
  </defs>
  <rect x="8" y="-2" width="90%" height="90%" fill="white" rx="30" ry="30"/>
  <g clip-path="url(#5d712d28e9)">
    <g clip-path="url(#d05aff800f)">
      <g clip-path="url(#5517404edf)">
        <path fill="#ff3131" d="M 35.703125 35.675781 L 33.300781 33.546875 C 32.84375 33.140625 32.804688 32.445312 33.210938 31.988281 L 35.960938 28.886719 C 36.363281 28.429688 36.324219 27.730469 35.867188 27.324219 C 35.410156 26.917969 34.710938 26.960938 34.304688 27.417969 L 29.390625 32.960938 C 28.882812 33.53125 28.011719 33.582031 27.441406 33.078125 C 26.867188 32.570312 26.816406 31.699219 27.324219 31.128906 L 35.539062 21.863281 C 35.945312 21.40625 35.902344 20.710938 35.445312 20.304688 C 34.988281 19.898438 34.289062 19.941406 33.882812 20.398438 L 16.285156 40.238281 C 15.78125 40.808594 14.90625 40.863281 14.335938 40.355469 C 13.765625 39.847656 13.714844 38.976562 14.21875 38.40625 L 28.515625 22.285156 C 28.921875 21.828125 28.882812 21.128906 28.421875 20.722656 C 27.964844 20.320312 27.269531 20.359375 26.863281 20.816406 L 21.289062 27.105469 C 20.882812 27.5625 20.183594 27.601562 19.726562 27.199219 L 19.3125 26.832031 C 18.855469 26.425781 18.8125 25.726562 19.21875 25.269531 L 28.09375 15.261719 C 28.5 14.804688 28.457031 14.105469 28 13.699219 C 27.542969 13.296875 26.84375 13.335938 26.441406 13.792969 L 5.53125 37.378906 C 5.023438 37.949219 4.152344 38 3.578125 37.496094 C 3.007812 36.988281 2.957031 36.117188 3.464844 35.542969 L 21.074219 15.6875 C 21.480469 15.230469 21.4375 14.53125 20.980469 14.125 C 20.523438 13.71875 19.828125 13.761719 19.421875 14.21875 L 16.671875 17.320312 C 16.265625 17.777344 15.570312 17.820312 15.113281 17.414062 L 12.710938 15.285156 C 12.097656 14.738281 12.269531 13.738281 13.03125 13.429688 L 44.921875 0.632812 C 45.765625 0.296875 46.636719 1.066406 46.402344 1.945312 L 37.503906 35.136719 C 37.289062 35.929688 36.316406 36.222656 35.703125 35.675781 Z M 17.480469 29.316406 C 16.910156 28.8125 16.035156 28.863281 15.53125 29.433594 L 2.972656 43.59375 C 2.464844 44.164062 2.519531 45.039062 3.089844 45.542969 C 3.660156 46.050781 4.53125 45.996094 5.039062 45.425781 L 17.597656 31.269531 C 18.101562 30.695312 18.050781 29.824219 17.480469 29.316406 Z M 25.652344 35.089844 C 25.082031 34.585938 24.210938 34.636719 23.703125 35.207031 L 15.542969 44.410156 C 15.035156 44.980469 15.085938 45.855469 15.660156 46.359375 C 16.230469 46.867188 17.101562 46.816406 17.609375 46.242188 L 25.769531 37.039062 C 26.277344 36.46875 26.226562 35.597656 25.652344 35.089844 Z M 13.539062 41.203125 C 12.984375 40.710938 12.132812 40.761719 11.636719 41.316406 C 11.144531 41.875 11.195312 42.726562 11.75 43.21875 C 12.308594 43.710938 13.160156 43.660156 13.652344 43.105469 C 14.144531 42.546875 14.09375 41.695312 13.539062 41.203125 Z M 13.539062 41.203125 " fill-opacity="1" fill-rule="nonzero" />
      </g>
    </g>
  </g>
  <g clip-path="url(#8040902b62)">
    <path fill="#ffffff" d="M 34.042969 42.363281 C 34.042969 42.707031 33.976562 43.039062 33.84375 43.355469 C 33.714844 43.671875 33.527344 43.949219 33.285156 44.191406 C 33.042969 44.4375 32.761719 44.621094 32.445312 44.753906 C 32.128906 44.886719 31.796875 44.949219 31.453125 44.949219 C 31.113281 44.949219 30.78125 44.886719 30.464844 44.753906 C 30.148438 44.621094 29.867188 44.4375 29.625 44.191406 C 29.382812 43.949219 29.195312 43.671875 29.066406 43.355469 C 28.933594 43.039062 28.867188 42.707031 28.867188 42.363281 C 28.867188 42.019531 28.933594 41.691406 29.066406 41.375 C 29.195312 41.058594 29.382812 40.777344 29.625 40.535156 C 29.867188 40.292969 30.148438 40.105469 30.464844 39.976562 C 30.78125 39.84375 31.113281 39.777344 31.453125 39.777344 C 31.796875 39.777344 32.128906 39.84375 32.445312 39.976562 C 32.761719 40.105469 33.042969 40.292969 33.285156 40.535156 C 33.527344 40.777344 33.714844 41.058594 33.84375 41.375 C 33.976562 41.691406 34.042969 42.019531 34.042969 42.363281 Z M 34.042969 42.363281 " fill-opacity="1" fill-rule="nonzero" />
  </g>
</svg>

