<svg xmlns="http://www.w3.org/2000/svg" xmlns:xlink="http://www.w3.org/1999/xlink" width="1500" zoomAndPan="magnify" viewBox="0 0 184.5 45.749998" height="1500" preserveAspectRatio="xMidYMid meet" version="1.0"><defs><g/><clipPath id="fb1d07fc0a"><path d="M 2 5 L 39 5 L 39 44 L 2 44 Z M 2 5 " clip-rule="nonzero"/></clipPath><clipPath id="56ca47b4eb"><path d="M 0.253906 7.609375 L 38.972656 5.289062 L 41.203125 42.515625 L 2.484375 44.835938 Z M 0.253906 7.609375 " clip-rule="nonzero"/></clipPath><clipPath id="e3c88d6ea6"><path d="M 0.253906 7.609375 L 38.972656 5.289062 L 41.203125 42.515625 L 2.484375 44.835938 Z M 0.253906 7.609375 " clip-rule="nonzero"/></clipPath></defs><g clip-path="url(#fb1d07fc0a)"><g clip-path="url(#56ca47b4eb)"><g clip-path="url(#e3c88d6ea6)"><path fill="#ff3131" d="M 29.71875 34.550781 L 27.738281 32.796875 C 27.363281 32.460938 27.328125 31.882812 27.664062 31.507812 L 29.933594 28.949219 C 30.265625 28.570312 30.230469 27.992188 29.855469 27.660156 C 29.476562 27.324219 28.902344 27.359375 28.566406 27.738281 L 24.507812 32.3125 C 24.089844 32.78125 23.371094 32.824219 22.898438 32.40625 C 22.429688 31.988281 22.386719 31.269531 22.804688 30.796875 L 29.585938 23.152344 C 29.917969 22.773438 29.886719 22.199219 29.507812 21.863281 C 29.128906 21.527344 28.554688 21.5625 28.21875 21.941406 L 13.695312 38.316406 C 13.277344 38.789062 12.558594 38.832031 12.085938 38.414062 C 11.613281 37.996094 11.570312 37.277344 11.988281 36.804688 L 23.789062 23.5 C 24.125 23.121094 24.089844 22.546875 23.710938 22.210938 C 23.335938 21.875 22.757812 21.910156 22.425781 22.289062 L 17.824219 27.476562 C 17.488281 27.855469 16.910156 27.890625 16.535156 27.554688 L 16.191406 27.25 C 15.816406 26.917969 15.78125 26.339844 16.113281 25.960938 L 23.441406 17.703125 C 23.773438 17.324219 23.742188 16.75 23.363281 16.414062 C 22.984375 16.078125 22.410156 16.113281 22.074219 16.492188 L 4.816406 35.957031 C 4.398438 36.425781 3.679688 36.46875 3.207031 36.054688 C 2.738281 35.636719 2.691406 34.914062 3.109375 34.445312 L 17.648438 18.054688 C 17.980469 17.675781 17.949219 17.101562 17.570312 16.765625 C 17.191406 16.429688 16.617188 16.464844 16.28125 16.84375 L 14.011719 19.402344 C 13.679688 19.78125 13.101562 19.8125 12.726562 19.480469 L 10.742188 17.722656 C 10.238281 17.273438 10.378906 16.445312 11.007812 16.191406 L 37.328125 5.628906 C 38.027344 5.351562 38.746094 5.988281 38.550781 6.714844 L 31.207031 34.105469 C 31.03125 34.761719 30.226562 35 29.71875 34.550781 Z M 14.679688 29.304688 C 14.207031 28.886719 13.488281 28.929688 13.070312 29.402344 L 2.707031 41.085938 C 2.289062 41.558594 2.332031 42.277344 2.800781 42.695312 C 3.273438 43.113281 3.992188 43.070312 4.410156 42.601562 L 14.777344 30.914062 C 15.195312 30.441406 15.152344 29.722656 14.679688 29.304688 Z M 21.425781 34.070312 C 20.957031 33.652344 20.234375 33.695312 19.816406 34.164062 L 13.082031 41.761719 C 12.664062 42.234375 12.707031 42.953125 13.175781 43.371094 C 13.648438 43.789062 14.367188 43.746094 14.785156 43.273438 L 21.523438 35.679688 C 21.941406 35.207031 21.898438 34.488281 21.425781 34.070312 Z M 11.425781 39.113281 C 10.96875 38.707031 10.265625 38.75 9.859375 39.207031 C 9.449219 39.667969 9.492188 40.371094 9.953125 40.777344 C 10.410156 41.183594 11.113281 41.140625 11.519531 40.683594 C 11.929688 40.222656 11.886719 39.519531 11.425781 39.113281 Z M 11.425781 39.113281 " fill-opacity="1" fill-rule="nonzero"/></g></g></g><g fill="#ffffff" fill-opacity="1"><g transform="translate(39.461436, 27.267187)"><g><path d="M 3.984375 -10.3125 L 7.75 -10.3125 L 7.75 -7.65625 L 3.984375 -7.65625 L 3.984375 0 L 1.0625 0 L 1.0625 -18.5625 L 8.78125 -18.5625 L 8.78125 -15.90625 L 3.984375 -15.90625 Z M 3.984375 -10.3125 "/></g></g></g><g fill="#ffffff" fill-opacity="1"><g transform="translate(48.578686, 27.267187)"><g><path d="M 3.984375 -10.734375 L 7.984375 -10.734375 L 7.984375 -8.09375 L 3.984375 -8.09375 L 3.984375 -2.65625 L 9.015625 -2.65625 L 9.015625 0 L 1.0625 0 L 1.0625 -18.5625 L 9.015625 -18.5625 L 9.015625 -15.90625 L 3.984375 -15.90625 Z M 3.984375 -10.734375 "/></g></g></g><g fill="#ffffff" fill-opacity="1"><g transform="translate(58.332026, 27.267187)"><g><path d="M 7.15625 0 C 7.125 -0.125 7.085938 -0.238281 7.046875 -0.34375 C 7.015625 -0.445312 6.984375 -0.578125 6.953125 -0.734375 C 6.929688 -0.898438 6.914062 -1.101562 6.90625 -1.34375 C 6.894531 -1.59375 6.890625 -1.90625 6.890625 -2.28125 L 6.890625 -5.203125 C 6.890625 -6.066406 6.738281 -6.675781 6.4375 -7.03125 C 6.144531 -7.382812 5.660156 -7.5625 4.984375 -7.5625 L 3.984375 -7.5625 L 3.984375 0 L 1.0625 0 L 1.0625 -18.5625 L 5.46875 -18.5625 C 6.988281 -18.5625 8.085938 -18.207031 8.765625 -17.5 C 9.441406 -16.789062 9.78125 -15.722656 9.78125 -14.296875 L 9.78125 -12.828125 C 9.78125 -10.921875 9.144531 -9.664062 7.875 -9.0625 C 8.613281 -8.769531 9.117188 -8.28125 9.390625 -7.59375 C 9.671875 -6.914062 9.8125 -6.09375 9.8125 -5.125 L 9.8125 -2.25 C 9.8125 -1.789062 9.828125 -1.390625 9.859375 -1.046875 C 9.898438 -0.703125 9.988281 -0.351562 10.125 0 Z M 3.984375 -15.90625 L 3.984375 -10.203125 L 5.125 -10.203125 C 5.664062 -10.203125 6.09375 -10.34375 6.40625 -10.625 C 6.71875 -10.914062 6.875 -11.429688 6.875 -12.171875 L 6.875 -14 C 6.875 -14.675781 6.753906 -15.160156 6.515625 -15.453125 C 6.273438 -15.753906 5.894531 -15.90625 5.375 -15.90625 Z M 3.984375 -15.90625 "/></g></g></g><g fill="#ffffff" fill-opacity="1"><g transform="translate(68.986481, 27.267187)"><g><path d="M 7.15625 0 C 7.125 -0.125 7.085938 -0.238281 7.046875 -0.34375 C 7.015625 -0.445312 6.984375 -0.578125 6.953125 -0.734375 C 6.929688 -0.898438 6.914062 -1.101562 6.90625 -1.34375 C 6.894531 -1.59375 6.890625 -1.90625 6.890625 -2.28125 L 6.890625 -5.203125 C 6.890625 -6.066406 6.738281 -6.675781 6.4375 -7.03125 C 6.144531 -7.382812 5.660156 -7.5625 4.984375 -7.5625 L 3.984375 -7.5625 L 3.984375 0 L 1.0625 0 L 1.0625 -18.5625 L 5.46875 -18.5625 C 6.988281 -18.5625 8.085938 -18.207031 8.765625 -17.5 C 9.441406 -16.789062 9.78125 -15.722656 9.78125 -14.296875 L 9.78125 -12.828125 C 9.78125 -10.921875 9.144531 -9.664062 7.875 -9.0625 C 8.613281 -8.769531 9.117188 -8.28125 9.390625 -7.59375 C 9.671875 -6.914062 9.8125 -6.09375 9.8125 -5.125 L 9.8125 -2.25 C 9.8125 -1.789062 9.828125 -1.390625 9.859375 -1.046875 C 9.898438 -0.703125 9.988281 -0.351562 10.125 0 Z M 3.984375 -15.90625 L 3.984375 -10.203125 L 5.125 -10.203125 C 5.664062 -10.203125 6.09375 -10.34375 6.40625 -10.625 C 6.71875 -10.914062 6.875 -11.429688 6.875 -12.171875 L 6.875 -14 C 6.875 -14.675781 6.753906 -15.160156 6.515625 -15.453125 C 6.273438 -15.753906 5.894531 -15.90625 5.375 -15.90625 Z M 3.984375 -15.90625 "/></g></g></g><g fill="#ffffff" fill-opacity="1"><g transform="translate(79.640936, 27.267187)"><g><path d="M 10.5 0 L 7.5625 0 L 7.046875 -3.375 L 3.46875 -3.375 L 2.96875 0 L 0.296875 0 L 3.265625 -18.5625 L 7.53125 -18.5625 Z M 3.84375 -5.890625 L 6.65625 -5.890625 L 5.25 -15.265625 Z M 3.84375 -5.890625 "/></g></g></g><g fill="#ffffff" fill-opacity="1"><g transform="translate(90.42791, 27.267187)"><g><path d="M 7.234375 -5.375 L 9.234375 -18.5625 L 13.28125 -18.5625 L 13.28125 0 L 10.53125 0 L 10.53125 -13.3125 L 8.515625 0 L 5.75 0 L 3.578125 -13.125 L 3.578125 0 L 1.03125 0 L 1.03125 -18.5625 L 5.09375 -18.5625 Z M 7.234375 -5.375 "/></g></g></g><g fill="#ffffff" fill-opacity="1"><g transform="translate(104.766377, 27.267187)"><g><path d="M 3.984375 -10.734375 L 7.984375 -10.734375 L 7.984375 -8.09375 L 3.984375 -8.09375 L 3.984375 -2.65625 L 9.015625 -2.65625 L 9.015625 0 L 1.0625 0 L 1.0625 -18.5625 L 9.015625 -18.5625 L 9.015625 -15.90625 L 3.984375 -15.90625 Z M 3.984375 -10.734375 "/></g></g></g><g fill="#ffffff" fill-opacity="1"><g transform="translate(114.519716, 27.267187)"><g><path d="M 3.65625 -13.4375 L 3.65625 0 L 1.03125 0 L 1.03125 -18.5625 L 4.6875 -18.5625 L 7.6875 -7.453125 L 7.6875 -18.5625 L 10.28125 -18.5625 L 10.28125 0 L 7.296875 0 Z M 3.65625 -13.4375 "/></g></g></g><g fill="#ff3131" fill-opacity="1"><g transform="translate(126.30224, 27.267187)"><g><path d="M 0.265625 -18.5625 L 9.28125 -18.5625 L 9.28125 -15.90625 L 6.234375 -15.90625 L 6.234375 0 L 3.3125 0 L 3.3125 -15.90625 L 0.265625 -15.90625 Z M 0.265625 -18.5625 "/></g></g></g><g fill="#ff3131" fill-opacity="1"><g transform="translate(135.843546, 27.267187)"><g><path d="M 10.5 0 L 7.5625 0 L 7.046875 -3.375 L 3.46875 -3.375 L 2.96875 0 L 0.296875 0 L 3.265625 -18.5625 L 7.53125 -18.5625 Z M 3.84375 -5.890625 L 6.65625 -5.890625 L 5.25 -15.265625 Z M 8.90625 -22.5625 L 6.046875 -19.46875 L 3.984375 -19.46875 L 5.890625 -22.5625 Z M 8.90625 -22.5625 "/></g></g></g><g fill="#ff3131" fill-opacity="1"><g transform="translate(146.63052, 27.267187)"><g><path d="M 7.15625 0 C 7.125 -0.125 7.085938 -0.238281 7.046875 -0.34375 C 7.015625 -0.445312 6.984375 -0.578125 6.953125 -0.734375 C 6.929688 -0.898438 6.914062 -1.101562 6.90625 -1.34375 C 6.894531 -1.59375 6.890625 -1.90625 6.890625 -2.28125 L 6.890625 -5.203125 C 6.890625 -6.066406 6.738281 -6.675781 6.4375 -7.03125 C 6.144531 -7.382812 5.660156 -7.5625 4.984375 -7.5625 L 3.984375 -7.5625 L 3.984375 0 L 1.0625 0 L 1.0625 -18.5625 L 5.46875 -18.5625 C 6.988281 -18.5625 8.085938 -18.207031 8.765625 -17.5 C 9.441406 -16.789062 9.78125 -15.722656 9.78125 -14.296875 L 9.78125 -12.828125 C 9.78125 -10.921875 9.144531 -9.664062 7.875 -9.0625 C 8.613281 -8.769531 9.117188 -8.28125 9.390625 -7.59375 C 9.671875 -6.914062 9.8125 -6.09375 9.8125 -5.125 L 9.8125 -2.25 C 9.8125 -1.789062 9.828125 -1.390625 9.859375 -1.046875 C 9.898438 -0.703125 9.988281 -0.351562 10.125 0 Z M 3.984375 -15.90625 L 3.984375 -10.203125 L 5.125 -10.203125 C 5.664062 -10.203125 6.09375 -10.34375 6.40625 -10.625 C 6.71875 -10.914062 6.875 -11.429688 6.875 -12.171875 L 6.875 -14 C 6.875 -14.675781 6.753906 -15.160156 6.515625 -15.453125 C 6.273438 -15.753906 5.894531 -15.90625 5.375 -15.90625 Z M 3.984375 -15.90625 "/></g></g></g><g fill="#ff3131" fill-opacity="1"><g transform="translate(157.284975, 27.267187)"><g><path d="M 1.0625 -18.5625 L 3.984375 -18.5625 L 3.984375 0 L 1.0625 0 Z M 1.0625 -18.5625 "/></g></g></g><g fill="#ff3131" fill-opacity="1"><g transform="translate(162.320667, 27.267187)"><g><path d="M 3.734375 -4.265625 C 3.734375 -3.597656 3.867188 -3.125 4.140625 -2.84375 C 4.421875 -2.570312 4.789062 -2.4375 5.25 -2.4375 C 5.707031 -2.4375 6.070312 -2.570312 6.34375 -2.84375 C 6.625 -3.125 6.765625 -3.597656 6.765625 -4.265625 L 6.765625 -14.296875 C 6.765625 -14.960938 6.625 -15.429688 6.34375 -15.703125 C 6.070312 -15.984375 5.707031 -16.125 5.25 -16.125 C 4.789062 -16.125 4.421875 -15.984375 4.140625 -15.703125 C 3.867188 -15.429688 3.734375 -14.960938 3.734375 -14.296875 Z M 0.828125 -14.109375 C 0.828125 -15.609375 1.207031 -16.757812 1.96875 -17.5625 C 2.726562 -18.363281 3.820312 -18.765625 5.25 -18.765625 C 6.675781 -18.765625 7.769531 -18.363281 8.53125 -17.5625 C 9.289062 -16.757812 9.671875 -15.609375 9.671875 -14.109375 L 9.671875 -4.453125 C 9.671875 -2.953125 9.289062 -1.796875 8.53125 -0.984375 C 7.769531 -0.179688 6.675781 0.21875 5.25 0.21875 C 3.820312 0.21875 2.726562 -0.179688 1.96875 -0.984375 C 1.207031 -1.796875 0.828125 -2.953125 0.828125 -4.453125 Z M 0.828125 -14.109375 "/></g></g></g><g fill="#ffffff" fill-opacity="1"><g transform="translate(40.913756, 38.633374)"><g><path d="M 5.171875 -8.65625 C 5.171875 -8.5625 5.125 -8.515625 5.03125 -8.515625 L 1.96875 -8.515625 C 1.925781 -8.515625 1.90625 -8.5 1.90625 -8.46875 L 1.90625 -5.15625 C 1.90625 -5.125 1.925781 -5.109375 1.96875 -5.109375 L 3.90625 -5.109375 C 3.988281 -5.109375 4.03125 -5.0625 4.03125 -4.96875 L 4.03125 -4.390625 C 4.03125 -4.304688 3.988281 -4.265625 3.90625 -4.265625 L 1.96875 -4.265625 C 1.925781 -4.265625 1.90625 -4.242188 1.90625 -4.203125 L 1.90625 -0.140625 C 1.90625 -0.046875 1.863281 0 1.78125 0 L 1.09375 0 C 1.007812 0 0.96875 -0.046875 0.96875 -0.140625 L 0.96875 -9.21875 C 0.96875 -9.300781 1.007812 -9.34375 1.09375 -9.34375 L 5.03125 -9.34375 C 5.125 -9.34375 5.171875 -9.300781 5.171875 -9.21875 Z M 5.171875 -8.65625 "/></g></g></g><g fill="#ffffff" fill-opacity="1"><g transform="translate(46.309844, 38.633374)"><g><path d="M 4.84375 -3.15625 C 4.84375 -3.0625 4.800781 -3.015625 4.71875 -3.015625 L 1.671875 -3.015625 C 1.628906 -3.015625 1.609375 -3 1.609375 -2.96875 L 1.609375 -1.984375 C 1.609375 -1.609375 1.710938 -1.300781 1.921875 -1.0625 C 2.140625 -0.832031 2.414062 -0.71875 2.75 -0.71875 C 3.03125 -0.71875 3.269531 -0.804688 3.46875 -0.984375 C 3.675781 -1.160156 3.8125 -1.382812 3.875 -1.65625 C 3.90625 -1.738281 3.953125 -1.78125 4.015625 -1.78125 L 4.6875 -1.75 C 4.726562 -1.75 4.757812 -1.734375 4.78125 -1.703125 C 4.8125 -1.679688 4.820312 -1.648438 4.8125 -1.609375 C 4.738281 -1.078125 4.519531 -0.65625 4.15625 -0.34375 C 3.800781 -0.0390625 3.332031 0.109375 2.75 0.109375 C 2.113281 0.109375 1.609375 -0.078125 1.234375 -0.453125 C 0.859375 -0.828125 0.671875 -1.320312 0.671875 -1.9375 L 0.671875 -4.828125 C 0.671875 -5.429688 0.859375 -5.921875 1.234375 -6.296875 C 1.609375 -6.671875 2.113281 -6.859375 2.75 -6.859375 C 3.394531 -6.859375 3.90625 -6.671875 4.28125 -6.296875 C 4.65625 -5.921875 4.84375 -5.429688 4.84375 -4.828125 Z M 2.75 -6.03125 C 2.414062 -6.03125 2.140625 -5.910156 1.921875 -5.671875 C 1.710938 -5.441406 1.609375 -5.132812 1.609375 -4.75 L 1.609375 -3.859375 C 1.609375 -3.828125 1.628906 -3.8125 1.671875 -3.8125 L 3.859375 -3.8125 C 3.898438 -3.8125 3.921875 -3.828125 3.921875 -3.859375 L 3.921875 -4.75 C 3.921875 -5.132812 3.8125 -5.441406 3.59375 -5.671875 C 3.375 -5.910156 3.09375 -6.03125 2.75 -6.03125 Z M 2.75 -6.03125 "/></g></g></g><g fill="#ffffff" fill-opacity="1"><g transform="translate(51.746007, 38.633374)"><g><path d="M 3.09375 -6.828125 C 3.320312 -6.828125 3.515625 -6.773438 3.671875 -6.671875 C 3.734375 -6.640625 3.753906 -6.582031 3.734375 -6.5 L 3.578125 -5.8125 C 3.566406 -5.726562 3.515625 -5.703125 3.421875 -5.734375 C 3.316406 -5.785156 3.179688 -5.8125 3.015625 -5.8125 C 2.941406 -5.8125 2.890625 -5.804688 2.859375 -5.796875 C 2.535156 -5.773438 2.269531 -5.609375 2.0625 -5.296875 C 1.863281 -4.984375 1.765625 -4.597656 1.765625 -4.140625 L 1.765625 -0.140625 C 1.765625 -0.046875 1.71875 0 1.625 0 L 0.953125 0 C 0.859375 0 0.8125 -0.046875 0.8125 -0.140625 L 0.8125 -6.625 C 0.8125 -6.71875 0.859375 -6.765625 0.953125 -6.765625 L 1.625 -6.765625 C 1.71875 -6.765625 1.765625 -6.71875 1.765625 -6.625 L 1.765625 -5.828125 C 1.765625 -5.796875 1.769531 -5.78125 1.78125 -5.78125 C 1.789062 -5.78125 1.804688 -5.789062 1.828125 -5.8125 C 2.085938 -6.488281 2.507812 -6.828125 3.09375 -6.828125 Z M 3.09375 -6.828125 "/></g></g></g><g fill="#ffffff" fill-opacity="1"><g transform="translate(55.64615, 38.633374)"><g><path d="M 3.09375 -6.828125 C 3.320312 -6.828125 3.515625 -6.773438 3.671875 -6.671875 C 3.734375 -6.640625 3.753906 -6.582031 3.734375 -6.5 L 3.578125 -5.8125 C 3.566406 -5.726562 3.515625 -5.703125 3.421875 -5.734375 C 3.316406 -5.785156 3.179688 -5.8125 3.015625 -5.8125 C 2.941406 -5.8125 2.890625 -5.804688 2.859375 -5.796875 C 2.535156 -5.773438 2.269531 -5.609375 2.0625 -5.296875 C 1.863281 -4.984375 1.765625 -4.597656 1.765625 -4.140625 L 1.765625 -0.140625 C 1.765625 -0.046875 1.71875 0 1.625 0 L 0.953125 0 C 0.859375 0 0.8125 -0.046875 0.8125 -0.140625 L 0.8125 -6.625 C 0.8125 -6.71875 0.859375 -6.765625 0.953125 -6.765625 L 1.625 -6.765625 C 1.71875 -6.765625 1.765625 -6.71875 1.765625 -6.625 L 1.765625 -5.828125 C 1.765625 -5.796875 1.769531 -5.78125 1.78125 -5.78125 C 1.789062 -5.78125 1.804688 -5.789062 1.828125 -5.8125 C 2.085938 -6.488281 2.507812 -6.828125 3.09375 -6.828125 Z M 3.09375 -6.828125 "/></g></g></g><g fill="#ffffff" fill-opacity="1"><g transform="translate(59.546293, 38.633374)"><g><path d="M 2.796875 -6.859375 C 3.421875 -6.859375 3.914062 -6.65625 4.28125 -6.25 C 4.65625 -5.851562 4.84375 -5.316406 4.84375 -4.640625 L 4.84375 -0.140625 C 4.84375 -0.046875 4.800781 0 4.71875 0 L 4.03125 0 C 3.945312 0 3.90625 -0.046875 3.90625 -0.140625 L 3.90625 -0.53125 C 3.90625 -0.550781 3.894531 -0.5625 3.875 -0.5625 C 3.863281 -0.570312 3.847656 -0.566406 3.828125 -0.546875 C 3.503906 -0.109375 3.007812 0.109375 2.34375 0.109375 C 1.851562 0.109375 1.425781 -0.03125 1.0625 -0.3125 C 0.707031 -0.59375 0.53125 -1.085938 0.53125 -1.796875 C 0.53125 -2.554688 0.75 -3.113281 1.1875 -3.46875 C 1.625 -3.820312 2.195312 -4 2.90625 -4 L 3.84375 -4 C 3.882812 -4 3.90625 -4.015625 3.90625 -4.046875 L 3.90625 -4.5625 C 3.90625 -5.007812 3.800781 -5.363281 3.59375 -5.625 C 3.382812 -5.894531 3.109375 -6.03125 2.765625 -6.03125 C 2.492188 -6.03125 2.265625 -5.941406 2.078125 -5.765625 C 1.890625 -5.585938 1.773438 -5.363281 1.734375 -5.09375 C 1.734375 -5 1.691406 -4.953125 1.609375 -4.953125 L 0.859375 -4.96875 C 0.804688 -4.96875 0.769531 -4.976562 0.75 -5 C 0.726562 -5.03125 0.722656 -5.066406 0.734375 -5.109375 C 0.773438 -5.628906 0.988281 -6.050781 1.375 -6.375 C 1.757812 -6.695312 2.234375 -6.859375 2.796875 -6.859375 Z M 2.546875 -0.71875 C 2.910156 -0.71875 3.226562 -0.832031 3.5 -1.0625 C 3.769531 -1.300781 3.90625 -1.632812 3.90625 -2.0625 L 3.90625 -3.171875 C 3.90625 -3.210938 3.882812 -3.234375 3.84375 -3.234375 L 2.90625 -3.234375 C 2.46875 -3.234375 2.125 -3.117188 1.875 -2.890625 C 1.632812 -2.660156 1.515625 -2.328125 1.515625 -1.890625 C 1.515625 -1.492188 1.609375 -1.195312 1.796875 -1 C 1.984375 -0.8125 2.234375 -0.71875 2.546875 -0.71875 Z M 2.546875 -0.71875 "/></g></g></g><g fill="#ffffff" fill-opacity="1"><g transform="translate(65.062597, 38.633374)"><g><path d="M 6.21875 -6.859375 C 6.757812 -6.859375 7.175781 -6.660156 7.46875 -6.265625 C 7.757812 -5.867188 7.90625 -5.328125 7.90625 -4.640625 L 7.90625 -0.140625 C 7.90625 -0.046875 7.863281 0 7.78125 0 L 7.109375 0 C 7.015625 0 6.96875 -0.046875 6.96875 -0.140625 L 6.96875 -4.5625 C 6.96875 -5.007812 6.875 -5.363281 6.6875 -5.625 C 6.5 -5.894531 6.25 -6.03125 5.9375 -6.03125 C 5.59375 -6.03125 5.320312 -5.898438 5.125 -5.640625 C 4.9375 -5.378906 4.84375 -5.023438 4.84375 -4.578125 L 4.84375 -0.140625 C 4.84375 -0.046875 4.796875 0 4.703125 0 L 4.015625 0 C 3.929688 0 3.890625 -0.046875 3.890625 -0.140625 L 3.890625 -4.5625 C 3.890625 -5.007812 3.789062 -5.363281 3.59375 -5.625 C 3.40625 -5.894531 3.160156 -6.03125 2.859375 -6.03125 C 2.515625 -6.03125 2.242188 -5.898438 2.046875 -5.640625 C 1.847656 -5.378906 1.75 -5.023438 1.75 -4.578125 L 1.75 -0.140625 C 1.75 -0.046875 1.703125 0 1.609375 0 L 0.953125 0 C 0.859375 0 0.8125 -0.046875 0.8125 -0.140625 L 0.8125 -6.625 C 0.8125 -6.71875 0.859375 -6.765625 0.953125 -6.765625 L 1.609375 -6.765625 C 1.703125 -6.765625 1.75 -6.71875 1.75 -6.625 L 1.75 -6.21875 C 1.75 -6.195312 1.753906 -6.179688 1.765625 -6.171875 C 1.785156 -6.171875 1.800781 -6.179688 1.8125 -6.203125 C 1.988281 -6.421875 2.191406 -6.582031 2.421875 -6.6875 C 2.648438 -6.800781 2.894531 -6.859375 3.15625 -6.859375 C 3.488281 -6.859375 3.78125 -6.773438 4.03125 -6.609375 C 4.28125 -6.441406 4.472656 -6.207031 4.609375 -5.90625 C 4.617188 -5.882812 4.628906 -5.875 4.640625 -5.875 C 4.660156 -5.875 4.675781 -5.890625 4.6875 -5.921875 C 4.84375 -6.242188 5.0625 -6.476562 5.34375 -6.625 C 5.625 -6.78125 5.914062 -6.859375 6.21875 -6.859375 Z M 6.21875 -6.859375 "/></g></g></g><g fill="#ffffff" fill-opacity="1"><g transform="translate(73.717708, 38.633374)"><g><path d="M 4.84375 -3.15625 C 4.84375 -3.0625 4.800781 -3.015625 4.71875 -3.015625 L 1.671875 -3.015625 C 1.628906 -3.015625 1.609375 -3 1.609375 -2.96875 L 1.609375 -1.984375 C 1.609375 -1.609375 1.710938 -1.300781 1.921875 -1.0625 C 2.140625 -0.832031 2.414062 -0.71875 2.75 -0.71875 C 3.03125 -0.71875 3.269531 -0.804688 3.46875 -0.984375 C 3.675781 -1.160156 3.8125 -1.382812 3.875 -1.65625 C 3.90625 -1.738281 3.953125 -1.78125 4.015625 -1.78125 L 4.6875 -1.75 C 4.726562 -1.75 4.757812 -1.734375 4.78125 -1.703125 C 4.8125 -1.679688 4.820312 -1.648438 4.8125 -1.609375 C 4.738281 -1.078125 4.519531 -0.65625 4.15625 -0.34375 C 3.800781 -0.0390625 3.332031 0.109375 2.75 0.109375 C 2.113281 0.109375 1.609375 -0.078125 1.234375 -0.453125 C 0.859375 -0.828125 0.671875 -1.320312 0.671875 -1.9375 L 0.671875 -4.828125 C 0.671875 -5.429688 0.859375 -5.921875 1.234375 -6.296875 C 1.609375 -6.671875 2.113281 -6.859375 2.75 -6.859375 C 3.394531 -6.859375 3.90625 -6.671875 4.28125 -6.296875 C 4.65625 -5.921875 4.84375 -5.429688 4.84375 -4.828125 Z M 2.75 -6.03125 C 2.414062 -6.03125 2.140625 -5.910156 1.921875 -5.671875 C 1.710938 -5.441406 1.609375 -5.132812 1.609375 -4.75 L 1.609375 -3.859375 C 1.609375 -3.828125 1.628906 -3.8125 1.671875 -3.8125 L 3.859375 -3.8125 C 3.898438 -3.8125 3.921875 -3.828125 3.921875 -3.859375 L 3.921875 -4.75 C 3.921875 -5.132812 3.8125 -5.441406 3.59375 -5.671875 C 3.375 -5.910156 3.09375 -6.03125 2.75 -6.03125 Z M 2.75 -6.03125 "/></g></g></g><g fill="#ffffff" fill-opacity="1"><g transform="translate(79.153872, 38.633374)"><g><path d="M 3.21875 -6.859375 C 3.757812 -6.859375 4.175781 -6.671875 4.46875 -6.296875 C 4.769531 -5.921875 4.921875 -5.398438 4.921875 -4.734375 L 4.921875 -0.140625 C 4.921875 -0.046875 4.878906 0 4.796875 0 L 4.109375 0 C 4.023438 0 3.984375 -0.046875 3.984375 -0.140625 L 3.984375 -4.65625 C 3.984375 -5.082031 3.882812 -5.414062 3.6875 -5.65625 C 3.5 -5.90625 3.238281 -6.03125 2.90625 -6.03125 C 2.539062 -6.03125 2.257812 -5.898438 2.0625 -5.640625 C 1.863281 -5.378906 1.765625 -5.023438 1.765625 -4.578125 L 1.765625 -0.140625 C 1.765625 -0.046875 1.71875 0 1.625 0 L 0.953125 0 C 0.859375 0 0.8125 -0.046875 0.8125 -0.140625 L 0.8125 -6.625 C 0.8125 -6.71875 0.859375 -6.765625 0.953125 -6.765625 L 1.625 -6.765625 C 1.71875 -6.765625 1.765625 -6.71875 1.765625 -6.625 L 1.765625 -6.203125 C 1.765625 -6.179688 1.769531 -6.164062 1.78125 -6.15625 C 1.800781 -6.144531 1.816406 -6.15625 1.828125 -6.1875 C 1.992188 -6.40625 2.195312 -6.570312 2.4375 -6.6875 C 2.6875 -6.800781 2.945312 -6.859375 3.21875 -6.859375 Z M 3.21875 -6.859375 "/></g></g></g><g fill="#ffffff" fill-opacity="1"><g transform="translate(84.817093, 38.633374)"><g><path d="M 3.1875 -6.1875 C 3.1875 -6.09375 3.144531 -6.046875 3.0625 -6.046875 L 2.046875 -6.046875 C 2.003906 -6.046875 1.984375 -6.03125 1.984375 -6 L 1.984375 -1.90625 C 1.984375 -1.5 2.054688 -1.21875 2.203125 -1.0625 C 2.347656 -0.90625 2.566406 -0.832031 2.859375 -0.84375 L 3 -0.84375 C 3.082031 -0.84375 3.125 -0.796875 3.125 -0.703125 L 3.125 -0.140625 C 3.125 -0.046875 3.082031 0 3 0 L 2.65625 0 C 2.132812 0 1.738281 -0.113281 1.46875 -0.34375 C 1.195312 -0.570312 1.0625 -1 1.0625 -1.625 L 1.0625 -6 C 1.0625 -6.03125 1.039062 -6.046875 1 -6.046875 L 0.484375 -6.046875 C 0.390625 -6.046875 0.34375 -6.09375 0.34375 -6.1875 L 0.34375 -6.625 C 0.34375 -6.71875 0.390625 -6.765625 0.484375 -6.765625 L 1 -6.765625 C 1.039062 -6.765625 1.0625 -6.78125 1.0625 -6.8125 L 1.0625 -8.3125 C 1.0625 -8.394531 1.101562 -8.4375 1.1875 -8.4375 L 1.859375 -8.4375 C 1.941406 -8.4375 1.984375 -8.394531 1.984375 -8.3125 L 1.984375 -6.8125 C 1.984375 -6.78125 2.003906 -6.765625 2.046875 -6.765625 L 3.0625 -6.765625 C 3.144531 -6.765625 3.1875 -6.71875 3.1875 -6.625 Z M 3.1875 -6.1875 "/></g></g></g><g fill="#ffffff" fill-opacity="1"><g transform="translate(88.383325, 38.633374)"><g><path d="M 2.796875 -6.859375 C 3.421875 -6.859375 3.914062 -6.65625 4.28125 -6.25 C 4.65625 -5.851562 4.84375 -5.316406 4.84375 -4.640625 L 4.84375 -0.140625 C 4.84375 -0.046875 4.800781 0 4.71875 0 L 4.03125 0 C 3.945312 0 3.90625 -0.046875 3.90625 -0.140625 L 3.90625 -0.53125 C 3.90625 -0.550781 3.894531 -0.5625 3.875 -0.5625 C 3.863281 -0.570312 3.847656 -0.566406 3.828125 -0.546875 C 3.503906 -0.109375 3.007812 0.109375 2.34375 0.109375 C 1.851562 0.109375 1.425781 -0.03125 1.0625 -0.3125 C 0.707031 -0.59375 0.53125 -1.085938 0.53125 -1.796875 C 0.53125 -2.554688 0.75 -3.113281 1.1875 -3.46875 C 1.625 -3.820312 2.195312 -4 2.90625 -4 L 3.84375 -4 C 3.882812 -4 3.90625 -4.015625 3.90625 -4.046875 L 3.90625 -4.5625 C 3.90625 -5.007812 3.800781 -5.363281 3.59375 -5.625 C 3.382812 -5.894531 3.109375 -6.03125 2.765625 -6.03125 C 2.492188 -6.03125 2.265625 -5.941406 2.078125 -5.765625 C 1.890625 -5.585938 1.773438 -5.363281 1.734375 -5.09375 C 1.734375 -5 1.691406 -4.953125 1.609375 -4.953125 L 0.859375 -4.96875 C 0.804688 -4.96875 0.769531 -4.976562 0.75 -5 C 0.726562 -5.03125 0.722656 -5.066406 0.734375 -5.109375 C 0.773438 -5.628906 0.988281 -6.050781 1.375 -6.375 C 1.757812 -6.695312 2.234375 -6.859375 2.796875 -6.859375 Z M 2.546875 -0.71875 C 2.910156 -0.71875 3.226562 -0.832031 3.5 -1.0625 C 3.769531 -1.300781 3.90625 -1.632812 3.90625 -2.0625 L 3.90625 -3.171875 C 3.90625 -3.210938 3.882812 -3.234375 3.84375 -3.234375 L 2.90625 -3.234375 C 2.46875 -3.234375 2.125 -3.117188 1.875 -2.890625 C 1.632812 -2.660156 1.515625 -2.328125 1.515625 -1.890625 C 1.515625 -1.492188 1.609375 -1.195312 1.796875 -1 C 1.984375 -0.8125 2.234375 -0.71875 2.546875 -0.71875 Z M 2.546875 -0.71875 "/></g></g></g><g fill="#ffffff" fill-opacity="1"><g transform="translate(93.899629, 38.633374)"><g><path d="M 2.578125 0.0625 C 1.960938 0.0625 1.46875 -0.09375 1.09375 -0.40625 C 0.726562 -0.71875 0.546875 -1.140625 0.546875 -1.671875 L 0.546875 -1.765625 C 0.546875 -1.847656 0.59375 -1.890625 0.6875 -1.890625 L 1.328125 -1.890625 C 1.410156 -1.890625 1.453125 -1.847656 1.453125 -1.765625 L 1.453125 -1.6875 C 1.453125 -1.394531 1.554688 -1.148438 1.765625 -0.953125 C 1.972656 -0.765625 2.25 -0.671875 2.59375 -0.671875 C 2.914062 -0.671875 3.171875 -0.765625 3.359375 -0.953125 C 3.554688 -1.148438 3.65625 -1.398438 3.65625 -1.703125 C 3.65625 -1.941406 3.59375 -2.140625 3.46875 -2.296875 C 3.34375 -2.453125 3.195312 -2.570312 3.03125 -2.65625 C 2.875 -2.75 2.628906 -2.863281 2.296875 -3 C 1.953125 -3.144531 1.664062 -3.285156 1.4375 -3.421875 C 1.207031 -3.566406 1.007812 -3.765625 0.84375 -4.015625 C 0.675781 -4.265625 0.59375 -4.585938 0.59375 -4.984375 C 0.59375 -5.554688 0.769531 -6.003906 1.125 -6.328125 C 1.476562 -6.660156 1.953125 -6.828125 2.546875 -6.828125 C 3.148438 -6.828125 3.628906 -6.65625 3.984375 -6.3125 C 4.347656 -5.976562 4.53125 -5.53125 4.53125 -4.96875 L 4.53125 -4.921875 C 4.53125 -4.835938 4.484375 -4.796875 4.390625 -4.796875 L 3.78125 -4.796875 C 3.6875 -4.796875 3.640625 -4.835938 3.640625 -4.921875 L 3.640625 -5.015625 C 3.640625 -5.316406 3.539062 -5.5625 3.34375 -5.75 C 3.144531 -5.945312 2.882812 -6.046875 2.5625 -6.046875 C 2.238281 -6.046875 1.984375 -5.945312 1.796875 -5.75 C 1.609375 -5.550781 1.515625 -5.304688 1.515625 -5.015625 C 1.515625 -4.796875 1.570312 -4.613281 1.6875 -4.46875 C 1.800781 -4.320312 1.941406 -4.203125 2.109375 -4.109375 C 2.273438 -4.015625 2.507812 -3.898438 2.8125 -3.765625 C 3.175781 -3.609375 3.476562 -3.457031 3.71875 -3.3125 C 3.957031 -3.164062 4.164062 -2.960938 4.34375 -2.703125 C 4.519531 -2.453125 4.609375 -2.132812 4.609375 -1.75 C 4.609375 -1.195312 4.425781 -0.753906 4.0625 -0.421875 C 3.695312 -0.0976562 3.203125 0.0625 2.578125 0.0625 Z M 2.578125 0.0625 "/></g></g></g><g fill="#ffffff" fill-opacity="1"><g transform="translate(98.895017, 38.633374)"><g/></g></g><g fill="#ffffff" fill-opacity="1"><g transform="translate(101.566348, 38.633374)"><g><path d="M 3.03125 0.109375 C 2.34375 0.109375 1.785156 -0.101562 1.359375 -0.53125 C 0.941406 -0.957031 0.734375 -1.523438 0.734375 -2.234375 L 0.734375 -7.125 C 0.734375 -7.820312 0.941406 -8.382812 1.359375 -8.8125 C 1.785156 -9.238281 2.34375 -9.453125 3.03125 -9.453125 C 3.726562 -9.453125 4.289062 -9.238281 4.71875 -8.8125 C 5.144531 -8.382812 5.359375 -7.820312 5.359375 -7.125 L 5.359375 -2.234375 C 5.359375 -1.535156 5.144531 -0.96875 4.71875 -0.53125 C 4.289062 -0.101562 3.726562 0.109375 3.03125 0.109375 Z M 3.03125 -0.71875 C 3.4375 -0.71875 3.765625 -0.851562 4.015625 -1.125 C 4.273438 -1.394531 4.40625 -1.742188 4.40625 -2.171875 L 4.40625 -7.15625 C 4.40625 -7.59375 4.273438 -7.945312 4.015625 -8.21875 C 3.765625 -8.488281 3.4375 -8.625 3.03125 -8.625 C 2.632812 -8.625 2.3125 -8.488281 2.0625 -8.21875 C 1.8125 -7.945312 1.6875 -7.59375 1.6875 -7.15625 L 1.6875 -2.171875 C 1.6875 -1.742188 1.8125 -1.394531 2.0625 -1.125 C 2.3125 -0.851562 2.632812 -0.71875 3.03125 -0.71875 Z M 3.03125 -0.71875 "/></g></g></g><g fill="#ffffff" fill-opacity="1"><g transform="translate(107.656982, 38.633374)"><g><path d="M 3.21875 -6.859375 C 3.757812 -6.859375 4.175781 -6.671875 4.46875 -6.296875 C 4.769531 -5.921875 4.921875 -5.398438 4.921875 -4.734375 L 4.921875 -0.140625 C 4.921875 -0.046875 4.878906 0 4.796875 0 L 4.109375 0 C 4.023438 0 3.984375 -0.046875 3.984375 -0.140625 L 3.984375 -4.65625 C 3.984375 -5.082031 3.882812 -5.414062 3.6875 -5.65625 C 3.5 -5.90625 3.238281 -6.03125 2.90625 -6.03125 C 2.539062 -6.03125 2.257812 -5.898438 2.0625 -5.640625 C 1.863281 -5.378906 1.765625 -5.023438 1.765625 -4.578125 L 1.765625 -0.140625 C 1.765625 -0.046875 1.71875 0 1.625 0 L 0.953125 0 C 0.859375 0 0.8125 -0.046875 0.8125 -0.140625 L 0.8125 -6.625 C 0.8125 -6.71875 0.859375 -6.765625 0.953125 -6.765625 L 1.625 -6.765625 C 1.71875 -6.765625 1.765625 -6.71875 1.765625 -6.625 L 1.765625 -6.203125 C 1.765625 -6.179688 1.769531 -6.164062 1.78125 -6.15625 C 1.800781 -6.144531 1.816406 -6.15625 1.828125 -6.1875 C 1.992188 -6.40625 2.195312 -6.570312 2.4375 -6.6875 C 2.6875 -6.800781 2.945312 -6.859375 3.21875 -6.859375 Z M 3.21875 -6.859375 "/></g></g></g><g fill="#ffffff" fill-opacity="1"><g transform="translate(113.320203, 38.633374)"><g><path d="M 0.875 0 C 0.78125 0 0.734375 -0.046875 0.734375 -0.140625 L 0.734375 -9.21875 C 0.734375 -9.300781 0.78125 -9.34375 0.875 -9.34375 L 1.546875 -9.34375 C 1.640625 -9.34375 1.6875 -9.300781 1.6875 -9.21875 L 1.6875 -0.140625 C 1.6875 -0.046875 1.640625 0 1.546875 0 Z M 0.875 0 "/></g></g></g><g fill="#ffffff" fill-opacity="1"><g transform="translate(115.737763, 38.633374)"><g><path d="M 1.390625 -7.984375 C 1.171875 -7.984375 0.988281 -8.054688 0.84375 -8.203125 C 0.707031 -8.347656 0.640625 -8.523438 0.640625 -8.734375 C 0.640625 -8.960938 0.707031 -9.144531 0.84375 -9.28125 C 0.988281 -9.414062 1.171875 -9.484375 1.390625 -9.484375 C 1.597656 -9.484375 1.769531 -9.414062 1.90625 -9.28125 C 2.050781 -9.144531 2.125 -8.960938 2.125 -8.734375 C 2.125 -8.523438 2.050781 -8.347656 1.90625 -8.203125 C 1.769531 -8.054688 1.597656 -7.984375 1.390625 -7.984375 Z M 1.0625 0 C 0.96875 0 0.921875 -0.046875 0.921875 -0.140625 L 0.921875 -6.625 C 0.921875 -6.71875 0.96875 -6.765625 1.0625 -6.765625 L 1.734375 -6.765625 C 1.828125 -6.765625 1.875 -6.71875 1.875 -6.625 L 1.875 -0.140625 C 1.875 -0.046875 1.828125 0 1.734375 0 Z M 1.0625 0 "/></g></g></g><g fill="#ffffff" fill-opacity="1"><g transform="translate(118.515947, 38.633374)"><g><path d="M 3.21875 -6.859375 C 3.757812 -6.859375 4.175781 -6.671875 4.46875 -6.296875 C 4.769531 -5.921875 4.921875 -5.398438 4.921875 -4.734375 L 4.921875 -0.140625 C 4.921875 -0.046875 4.878906 0 4.796875 0 L 4.109375 0 C 4.023438 0 3.984375 -0.046875 3.984375 -0.140625 L 3.984375 -4.65625 C 3.984375 -5.082031 3.882812 -5.414062 3.6875 -5.65625 C 3.5 -5.90625 3.238281 -6.03125 2.90625 -6.03125 C 2.539062 -6.03125 2.257812 -5.898438 2.0625 -5.640625 C 1.863281 -5.378906 1.765625 -5.023438 1.765625 -4.578125 L 1.765625 -0.140625 C 1.765625 -0.046875 1.71875 0 1.625 0 L 0.953125 0 C 0.859375 0 0.8125 -0.046875 0.8125 -0.140625 L 0.8125 -6.625 C 0.8125 -6.71875 0.859375 -6.765625 0.953125 -6.765625 L 1.625 -6.765625 C 1.71875 -6.765625 1.765625 -6.71875 1.765625 -6.625 L 1.765625 -6.203125 C 1.765625 -6.179688 1.769531 -6.164062 1.78125 -6.15625 C 1.800781 -6.144531 1.816406 -6.15625 1.828125 -6.1875 C 1.992188 -6.40625 2.195312 -6.570312 2.4375 -6.6875 C 2.6875 -6.800781 2.945312 -6.859375 3.21875 -6.859375 Z M 3.21875 -6.859375 "/></g></g></g><g fill="#ffffff" fill-opacity="1"><g transform="translate(124.179168, 38.633374)"><g><path d="M 4.84375 -3.15625 C 4.84375 -3.0625 4.800781 -3.015625 4.71875 -3.015625 L 1.671875 -3.015625 C 1.628906 -3.015625 1.609375 -3 1.609375 -2.96875 L 1.609375 -1.984375 C 1.609375 -1.609375 1.710938 -1.300781 1.921875 -1.0625 C 2.140625 -0.832031 2.414062 -0.71875 2.75 -0.71875 C 3.03125 -0.71875 3.269531 -0.804688 3.46875 -0.984375 C 3.675781 -1.160156 3.8125 -1.382812 3.875 -1.65625 C 3.90625 -1.738281 3.953125 -1.78125 4.015625 -1.78125 L 4.6875 -1.75 C 4.726562 -1.75 4.757812 -1.734375 4.78125 -1.703125 C 4.8125 -1.679688 4.820312 -1.648438 4.8125 -1.609375 C 4.738281 -1.078125 4.519531 -0.65625 4.15625 -0.34375 C 3.800781 -0.0390625 3.332031 0.109375 2.75 0.109375 C 2.113281 0.109375 1.609375 -0.078125 1.234375 -0.453125 C 0.859375 -0.828125 0.671875 -1.320312 0.671875 -1.9375 L 0.671875 -4.828125 C 0.671875 -5.429688 0.859375 -5.921875 1.234375 -6.296875 C 1.609375 -6.671875 2.113281 -6.859375 2.75 -6.859375 C 3.394531 -6.859375 3.90625 -6.671875 4.28125 -6.296875 C 4.65625 -5.921875 4.84375 -5.429688 4.84375 -4.828125 Z M 2.75 -6.03125 C 2.414062 -6.03125 2.140625 -5.910156 1.921875 -5.671875 C 1.710938 -5.441406 1.609375 -5.132812 1.609375 -4.75 L 1.609375 -3.859375 C 1.609375 -3.828125 1.628906 -3.8125 1.671875 -3.8125 L 3.859375 -3.8125 C 3.898438 -3.8125 3.921875 -3.828125 3.921875 -3.859375 L 3.921875 -4.75 C 3.921875 -5.132812 3.8125 -5.441406 3.59375 -5.671875 C 3.375 -5.910156 3.09375 -6.03125 2.75 -6.03125 Z M 2.75 -6.03125 "/></g></g></g></svg>
