<?xml version="1.0" standalone="no"?>
<!DOCTYPE svg PUBLIC "-//W3C//DTD SVG 20010904//EN"
 "http://www.w3.org/TR/2001/REC-SVG-20010904/DTD/svg10.dtd">
<svg version="1.0" xmlns="http://www.w3.org/2000/svg"
 width="256px" height="256px" viewBox="0 0 257 257"
 preserveAspectRatio="xMidYMid meet">

<g transform="translate(-2.000000,283.000000) scale(0.100000,-0.100000)"
fill="#000000" stroke="none">
<path d="M1285 2694 c-94 -14 -200 -40 -275 -66 -429 -152 -738 -505 -836
-958 -26 -119 -26 -381 0 -500 111 -512 494 -895 1006 -1006 118 -26 381 -26
498 -1 258 57 471 171 654 353 179 179 299 399 354 654 26 119 26 381 0 500
-111 513 -493 895 -1006 1006 -73 16 -332 27 -395 18z m420 -333 c244 -63 436
-229 534 -459 16 -40 32 -84 33 -98 3 -25 -2 -28 -75 -49 -71 -21 -79 -21 -84
-6 -3 9 -16 42 -28 74 -76 194 -229 326 -432 374 -107 25 -320 24 -418 -1
-205 -54 -350 -186 -422 -384 -46 -127 -58 -204 -58 -392 0 -183 8 -238 51
-371 68 -208 218 -349 434 -406 92 -25 330 -24 419 1 152 42 275 136 334 255
28 57 32 76 32 146 0 67 -4 89 -28 137 -24 50 -96 128 -118 128 -3 0 -14 -30
-24 -67 -35 -140 -118 -247 -233 -301 -52 -25 -67 -27 -182 -27 -117 0 -129 2
-188 29 -79 37 -153 115 -177 187 -53 159 39 334 210 398 79 30 230 45 333 34
l83 -9 -7 30 c-10 48 -40 101 -73 129 -44 36 -96 52 -176 51 -81 0 -145 -24
-189 -71 l-29 -31 -69 45 c-37 25 -68 50 -68 55 0 5 22 30 48 56 96 94 235
136 380 115 102 -15 162 -42 226 -103 65 -61 104 -139 124 -246 l15 -80 61
-34 c170 -94 265 -266 253 -455 -9 -140 -65 -257 -176 -363 -150 -145 -359
-211 -625 -199 -390 17 -649 210 -761 567 -69 220 -74 518 -13 755 26 104 105
265 162 335 119 144 292 238 491 270 100 15 338 5 430 -19z" transform="translate(-2,-2)"/>
<path d="M1450 1389 c-87 -7 -167 -42 -195 -85 -29 -45 -31 -103 -3 -144 36
-54 97 -80 188 -80 119 1 185 42 230 143 23 52 39 156 24 158 -126 11 -182 13
-244 8z" transform="translate(-2,-2)"/>
</g>
</svg>
