<?xml version="1.0" standalone="no"?>
<!DOCTYPE svg PUBLIC "-//W3C//DTD SVG 20010904//EN"
 "http://www.w3.org/TR/2001/REC-SVG-20010904/DTD/svg10.dtd">
<svg version="1.0" xmlns="http://www.w3.org/2000/svg"
 width="256px" height="256px" viewBox="0 0 270 270"
 preserveAspectRatio="xMidYMid meet">

<g transform="translate(0.000000,263.000000) scale(0.100000,-0.100000)"
fill="#ffffff" stroke="none">
<path d="M1155 2584 c-94 -14 -200 -40 -275 -66 -429 -152 -738 -505 -836
-958 -26 -119 -26 -381 0 -500 111 -512 494 -895 1006 -1006 118 -26 381 -26
498 -1 258 57 471 171 654 353 179 179 299 399 354 654 26 119 26 381 0 500
-111 513 -493 895 -1006 1006 -73 16 -332 27 -395 18z m39 -800 c182 -266 190
-275 205 -256 9 11 115 136 236 276 l220 256 63 0 c37 0 61 -4 57 -9 -3 -6
-124 -148 -270 -317 -145 -169 -261 -312 -258 -318 4 -6 129 -189 278 -406
150 -217 280 -407 290 -422 l17 -28 -218 0 -219 1 -195 285 c-107 157 -198
287 -201 289 -3 3 -118 -126 -255 -285 l-248 -290 -64 0 -63 0 18 23 c10 13
137 162 283 332 146 169 264 311 263 316 -1 4 -121 180 -266 391 -145 211
-271 395 -281 411 l-18 27 218 0 219 0 189 -276z"/>
<path fill="#000000" d="M750 1960 c0 -5 204 -300 453 -657 l453 -648 98 -3 c77 -2 97 0 93
10 -2 7 -209 305 -458 661 l-453 648 -93 -2 c-51 -1 -93 -5 -93 -9z"/>
</g>
</svg>
